/* XPM */
static char * haskell_xpm[] = {
"22 16 2 1",
" 	c #000000",
".	c #0088EE",
"   ..   ..............",
".   ..   .............",
".   ..   .............",
"..   ..   ..          ",
"..   ..   ..          ",
"...   ..   ..         ",
"...   ..   ...........",
"....   ..   ..........",
"....   ..   ..        ",
"...   ..     ..       ",
"...   ..     ..       ",
"..   ..   .   ........",
"..   ..   .   ........",
".   ..   ...   .......",
".   ..   ...   .......",
"   ..   .....   ......"};
