#define haskell_width 22
#define haskell_height 16
static unsigned char haskell_bits[] = {
   0xe7, 0x00, 0x00, 0xce, 0x01, 0x00, 0xce, 0x01, 0x00, 0x9c, 0xf3, 0x3f,
   0x9c, 0xf3, 0x3f, 0x38, 0xe7, 0x3f, 0x38, 0x07, 0x00, 0x70, 0x0e, 0x00,
   0x70, 0xce, 0x3f, 0x38, 0x9f, 0x3f, 0x38, 0x9f, 0x3f, 0x9c, 0x3b, 0x00,
   0x9c, 0x3b, 0x00, 0xce, 0x71, 0x00, 0xce, 0x71, 0x00, 0xe7, 0xe0, 0x00 };
